<svg xmlns="http://www.w3.org/2000/svg" width="600" height="700" viewBox="0 0 600 700">
  <defs>
    <linearGradient id="h" x1="0" y1="0" x2="1" y2="1">
      <stop offset="0" stop-color="#ffb64c" stop-opacity="0.35"/>
      <stop offset="1" stop-color="#4e5f57" stop-opacity="0.25"/>
    </linearGradient>
  </defs>
  <rect width="600" height="700" rx="12" fill="#f4eee1"/>
  <rect x="16" y="16" width="568" height="668" rx="10" fill="url(#h)"/>
  <g fill="none" stroke="#4e5f57" stroke-width="2" opacity="0.35">
    <path d="M120 200l40-23 40 23v46l-40 23-40-23z"/>
    <path d="M220 200l40-23 40 23v46l-40 23-40-23z"/>
    <path d="M320 200l40-23 40 23v46l-40 23-40-23z"/>
    <path d="M170 280l40-23 40 23v46l-40 23-40-23z"/>
    <path d="M270 280l40-23 40 23v46l-40 23-40-23z"/>
    <path d="M370 280l40-23 40 23v46l-40 23-40-23z"/>
    <path d="M220 360l40-23 40 23v46l-40 23-40-23z"/>
    <path d="M320 360l40-23 40 23v46l-40 23-40-23z"/>
  </g>
  <text x="48" y="580" font-family="system-ui,sans-serif" font-size="22" fill="#1b1b1b" opacity="0.75">Replace with honeycomb photo</text>
</svg>
